<svg xmlns="http://www.w3.org/2000/svg" viewBox="0 0 64 64"><g data-name="Puffer Fish"><path fill="#e29375" d="M29.57 11.46a1 1 0 0 0-.71 1.22l1.35 5a1 1 0 1 0 1.93-.52l-1.35-5a1 1 0 0 0-1.22-.7Z"/><path fill="#dbe4eb" d="M38.71 45.57A1 1 0 0 0 38 46.8l1.35 5a1 1 0 0 0 1.22.7 1 1 0 0 0 .7-1.22l-1.35-5a1 1 0 0 0-1.21-.71Z"/><path fill="#e29375" d="M25.2 13.48A1 1 0 0 0 24.07 15l2.61 4.51a1 1 0 0 0 1.36.37 1 1 0 0 0 .37-1.37L25.8 14a1 1 0 0 0-.6-.52Z"/><path fill="#dbe4eb" d="M42.86 44.07a1 1 0 0 0-1.13 1.47l2.61 4.51a1 1 0 0 0 1.36.37 1 1 0 0 0 .37-1.37l-2.61-4.51a1 1 0 0 0-.6-.47Z"/><path fill="#e29375" d="M20 17a1 1 0 0 0 0 1.42l3.69 3.68a1 1 0 0 0 1.42-1.41L21.45 17A1 1 0 0 0 20 17Z"/><path fill="#dbe4eb" d="M45.71 41.64a1 1 0 0 0-.7.3 1 1 0 0 0 0 1.41L48.69 47a1 1 0 0 0 1.42 0 1 1 0 0 0 0-1.42l-3.69-3.68a1 1 0 0 0-.71-.26Z"/><path fill="#e29375" d="M17.26 20.9a1 1 0 0 0-.26 1.83l4.52 2.61a1 1 0 0 0 1-1.73L18 21a1 1 0 0 0-.74-.1Z"/><path fill="#dbe4eb" d="M48.61 38.66a1 1 0 0 0-1 1.73L52.12 43a1 1 0 1 0 1-1.73Z"/><path fill="#e29375" d="M15.75 25.79a1 1 0 0 0-.52 1.93l5 1.35a1 1 0 0 0 1.23-.7 1 1 0 0 0-.71-1.22Z"/><path fill="#dbe4eb" d="M49.87 34.93a1 1 0 1 0-.52 1.93l5 1.35a1 1 0 0 0 .52-1.93Z"/><path fill="#e29375" d="M23.72 41.94 20 45.62A1 1 0 0 0 20 47a1 1 0 0 0 1.42 0l3.68-3.69a1 1 0 0 0 0-1.41 1 1 0 0 0-1.38.04zM49.4 16.67a1 1 0 0 0-.71.29L45 20.65a1 1 0 0 0 0 1.41 1 1 0 0 0 1.41 0l3.69-3.68a1 1 0 0 0 0-1.42 1 1 0 0 0-.7-.29zm-22.11 27.4a1 1 0 0 0-.61.47l-2.61 4.51a1 1 0 1 0 1.73 1l2.61-4.51a1 1 0 0 0-.41-1.37 1 1 0 0 0-.71-.1zM45 13.48a1 1 0 0 0-.61.47l-2.61 4.51a1 1 0 0 0 1.73 1L46.07 15A1 1 0 0 0 45 13.48z"/><path fill="#dbe4eb" d="M31.43 45.57a1 1 0 0 0-1.22.71l-1.35 5a1 1 0 0 0 1.93.52l1.35-5a1 1 0 0 0-.71-1.23Z"/><path fill="#e29375" d="M40.58 11.46a1 1 0 0 0-1.23.7L38 17.2a1 1 0 1 0 1.93.52l1.35-5a1 1 0 0 0-.7-1.26Z"/><path fill="#dbe4eb" d="M35.07 46.05a1 1 0 0 0-1 1v5.22a1 1 0 0 0 2 0v-5.22a1 1 0 0 0-1-1Z"/><path fill="#e29375" d="M35.07 10.73a1 1 0 0 0-1 1V17a1 1 0 0 0 2 0v-5.27a1 1 0 0 0-1-1Z"/><path fill="#e7a990" d="M54.25 29.31A2.37 2.37 0 0 0 53 24.74a1.62 1.62 0 0 1-1.8-.84A18.07 18.07 0 0 0 17 32.09a1 1 0 0 1-1 1l-6.35-.44a1.48 1.48 0 0 0-1.54 1.86l1.78 6.89a1.49 1.49 0 0 0 2.26.85l5-3.39a.84.84 0 0 1 1.3.4 18.05 18.05 0 0 0 5.44 7Z"/><path fill="#756d78" d="M41.43 23.34a2 2 0 1 0 1.4-2.42 2 2 0 0 0-1.4 2.42Z"/><path fill="#f7f8fa" d="m54.25 29.31-12.4 3.32-6.53 1.88C30.06 36.43 24.57 40 23.94 46.25a18.07 18.07 0 0 0 29.17-15.31 1.61 1.61 0 0 1 1.14-1.63Z"/><path fill="#e29375" d="M34.08 32.53a3.93 3.93 0 0 0 4.83 2.79c1.24-.33 2.62-2.14 3.53-3.55A1.94 1.94 0 0 0 41.7 29c-1.49-.77-3.59-1.65-4.83-1.31a3.92 3.92 0 0 0-2.79 4.84zm2.31-11.39a1 1 0 0 0-.39 1.37 1 1 0 0 0 1.37.36 1 1 0 1 0-1-1.73zm-6.63 3.04a1 1 0 0 0-.37 1.36 1 1 0 0 0 1.37.37 1 1 0 1 0-1-1.73z"/><path fill="#dbe4eb" d="M41.75 42.36a1 1 0 0 0-.37 1.36 1 1 0 0 0 1.37.37 1 1 0 0 0-1-1.73zm4.67-6.74a1 1 0 0 0-.37 1.38 1 1 0 0 0 1.37.37 1 1 0 0 0 .37-1.37 1 1 0 0 0-1.37-.38zm-14.02 5.3a1 1 0 0 0-.4 1.37 1 1 0 0 0 1.37.36 1 1 0 1 0-1-1.73z"/><path fill="#e29375" d="M23.36 22.4a1 1 0 0 0-.36 1.37 1 1 0 0 0 1.37.36 1 1 0 0 0 .36-1.36 1 1 0 0 0-1.37-.37zm5.81 8.38a1 1 0 0 0-.37 1.37 1 1 0 0 0 1.37.36 1 1 0 0 0-1-1.73zM21.82 35a1 1 0 0 0-.37 1.37 1 1 0 0 0 1.37.36 1 1 0 0 0-1-1.73zm9.38-18.14a1 1 0 0 0-.37 1.36 1 1 0 0 0 1.36.36 1 1 0 0 0-1-1.73z"/></g></svg>