<svg xmlns="http://www.w3.org/2000/svg" data-name="Flat gradient" viewBox="0 0 64 64"><defs><linearGradient id="a" x1="4.377" x2="59.809" y1="32.001" y2="32.001" gradientUnits="userSpaceOnUse"><stop offset="0" stop-color="#ffde00"/><stop offset="1" stop-color="#fd5900"/></linearGradient></defs><path fill="url(#a)" d="M12.82,31.2a16.63726,16.63726,0,0,0-.13,2.12l-.55-.25A.99984.99984,0,0,1,12.82,31.2Zm43.47,8.85-2.65-.07c-1.382.02006-3.26557-1.49306-4.4-2.14a3.73281,3.73281,0,0,0-3.88.01L42,39.96a3.99205,3.99205,0,0,1-2.37.62L28.11,39.89c-1.52772-.15377-2.07354-.62175-3.71-.30981a4.38794,4.38794,0,0,1-4.36-2.86027c-1.21728-.56785-4.10176-1.90353-5.3099-2.45987C15.26078,45.55092,26.39865,53.234,37.25,53.05989c.2.00011.39.00011.59-.0099l.15.59a1.00229,1.00229,0,0,0,1.7.43992L40.87,52.8a24.2191,24.2191,0,0,0,9.65-3.51c1.12.49,2.81,1.22,5.37,2.29a1.00562,1.00562,0,0,0,1.32992-1.25L55.37,45.1a17.75759,17.75759,0,0,0,3.07-4.99Zm2.85-1.92c-1.20974-.03243-4.18853-.1238-5.41007-.15-.69452.08289-2.8745-1.56941-3.42994-1.84a5.77274,5.77274,0,0,0-6.01.02l-3.36,2.12a1.952,1.952,0,0,1-1.18.3l-10.79-.65,1.09-.59a4.44893,4.44893,0,0,0,2.27-3.85V31.32a4.47355,4.47355,0,0,0-2.27-3.85L27.3,25.98008c-3.04636-1.77892-7.51458-.3187-7.48,3.47988v4.95L16.7,32.97l-1.95-.91a17.51684,17.51684,0,0,1,3.5-9.27l-1.81-5.15994A.9991.9991,0,0,1,17.71,16.36L22.9,18.2a22.61718,22.61718,0,0,1,4.06-2.33l.63-5.28A1.00167,1.00167,0,0,1,29.3,10.02l3.83,4.02a25.66242,25.66242,0,0,1,7.57-.09l3.13-3.97a.99737.99737,0,0,1,1.75.4l1.18,5.17a22.75483,22.75483,0,0,1,5.36,3.03L56.83,16.67a1.01241,1.01241,0,0,1,1.36,1.15l-1.34,5.82A17.49581,17.49581,0,0,1,59.14,38.13ZM35.36,25.52l-1.57-5.13L39.13,21.71a.99938.99938,0,0,0,.48-1.94l-7.06-1.75a1.015,1.015,0,0,0-1.2,1.27l2.1,6.82a.99951.99951,0,1,0,1.91-.59Zm4.55,1.31a1.0002,1.0002,0,0,0-.00007,2A1.0002,1.0002,0,0,0,39.91,26.83Zm7.43,3.75c-.2.36-.52.79-.89.82a2.51706,2.51706,0,0,1-1.5-.91993A1.00344,1.00344,0,0,0,43.3,31.61991c1.0613,1.53025,4.08611,3.08121,5.79-.06992A1.00063,1.00063,0,0,0,47.34,30.58Zm5.09-3.75a1.0002,1.0002,0,0,0-.00007,2A1.0002,1.0002,0,0,0,52.43006,26.83ZM14.21,40.86a19.41488,19.41488,0,0,1,.94-16.96l-2.12-1.05A6.0262,6.0262,0,0,0,4.55,26.8601c-.656,2.44147,1.614,3.66073,1.68,6.26989A3.10124,3.10124,0,0,1,5.42,35.24a4.29445,4.29445,0,0,0-1.01,3.37,6.37374,6.37374,0,0,0,9.26008,4.79984L15.06,42.67A18.16867,18.16867,0,0,1,14.21,40.86Zm8.62-3.67a3.45592,3.45592,0,0,0,2.83.18c.49385-.10855,2.93653-1.54552,3.43008-1.79a2.426,2.426,0,0,0,1.23-2.09V31.32a2.477,2.477,0,0,0-1.24-2.1c-1.193-.55053-3.33085-2.11461-4.7-1.99-1.339.076-2.46509.50711-2.5601,2.22987L21.82,35.35A2.04173,2.04173,0,0,0,22.83,37.19Z"/></svg>