<svg xmlns="http://www.w3.org/2000/svg" viewBox="0 0 100 100"><path d="M91.9 38.5c-1-1.6-2.6-2.7-4.5-2.9-1.8-.2-3.7.4-5 1.7l-5.8 5.8c-.3-.1-.6-.1-.9-.1-2 0-3.8-1.3-4.3-3.2-1.4-4.5-3.7-8.5-6.6-12l2.9-2.8c.8-.8.8-2 0-2.8-.8-.8-2-.8-2.8 0L62 25c-2.2-2-4.7-3.8-7.3-5.2l1.6-3.7c.5-1 0-2.2-1-2.6-1-.5-2.2 0-2.6 1L51 18.2c-3.2-1.2-6.5-1.9-10-2.1V12c0-1.1-.9-2-2-2s-2 .9-2 2v4.1h-.2c-3.5.2-6.8.9-9.9 2.1l-1.7-3.7c-.5-1-1.6-1.5-2.6-1s-1.5 1.6-1 2.6l1.7 3.7c-2.3 1.2-4.5 2.7-6.4 4.4L14 21.3c-.8-.8-2-.8-2.8-.1-.8.8-.8 2 0 2.8l2.8 2.9c-5.1 5.6-8.4 12.8-9 20.7v2.5c0 8.1 2.9 15.8 8.2 22l-2.9 2.8c-.8.8-.8 2 0 2.8.4.4.9.6 1.4.6.5 0 1-.2 1.4-.6l2.9-2.8c2.2 2 4.7 3.8 7.3 5.1l-1.7 3.7c-.5 1 0 2.2 1 2.6.3.1.5.2.8.2.8 0 1.5-.4 1.8-1.2l1.7-3.7c3.2 1.2 6.6 2 10 2.2V88c0 1.1.9 2 2 2s2-.9 2-2v-4.1c3.5-.2 6.9-.9 10-2.1l1.7 3.7c.3.7 1.1 1.2 1.8 1.2.3 0 .5 0 .8-.2 1-.5 1.5-1.6 1-2.6l-1.6-3.7c7.8-4.1 14-11.2 16.8-20.1.6-1.9 2.3-3.1 4.3-3.1H76.6l5.8 5.8c1.1 1.1 2.6 1.8 4.2 1.8h.8c1.9-.2 3.5-1.3 4.5-2.9 4.2-7.3 4.2-16.1 0-23.2zM38.9 80c-3.6 0-7.1-.7-10.4-1.9l1.6-3.6c.5-1 0-2.2-1-2.6-1-.5-2.2 0-2.6 1l-1.6 3.6c-2.9-1.5-5.6-3.6-7.9-6-1.7-1.8-3.1-3.7-4.2-5.8 7.2-4.8 15.9-6.5 24.2-5.3l1.3 2.3c.9 1.7 2.5 2.8 4.4 3 .3 0 .6.1.9.1 1.6 0 3.1-.6 4.2-1.8l.1-.1c2.4 1.2 4.6 2.8 6.7 4.6 1.6 1.5 3.5 2.8 5.4 4-5.6 5.3-13 8.5-21.1 8.5zm39.3-28c-.6.6-1.4 1-2.2 1h-.2c-3.8 0-7 2.4-8.1 5.9s-2.8 6.8-5 9.6c-2-1.1-3.8-2.5-5.4-4-2-1.8-4.1-3.3-6.4-4.6l2.2-2.2c1.3-1.3 2-3.2 1.7-5.1-.3-1.9-1.4-3.5-3-4.4l-8.1-4.5c-1-.5-2.2-.2-2.7.8-.5.8-.3 1.8.3 2.4.1.1.3.2.4.3l8.1 4.5c.5.3.9.8 1 1.5.1.6-.1 1.2-.6 1.7L45 60.1c-.5.5-1.1.7-1.7.6-.6-.1-1.2-.5-1.5-1l-4.5-8.1c-.1-.2-.2-.3-.3-.4-.6-.6-1.6-.8-2.4-.3-1 .5-1.3 1.8-.8 2.7l.9 1.6c-8.3-.7-16.6 1.3-23.7 5.8-1.1-2.9-1.8-5.9-2-9h5.9c1.1 0 2-.9 2-2s-.9-2-2-2H9v-.1C10 33 22 21 36.9 20.1V24c0 1.1.9 2 2 2s2-.9 2-2v-3.9c6.9.5 13.2 3.2 18.2 7.7l-2.8 2.7c-.8.8-.8 2 0 2.8.4.4.9.6 1.4.6.5 0 1-.2 1.4-.6l2.8-2.7c2.5 3 4.5 6.5 5.7 10.4 1.1 3.6 4.4 6 8.1 6 1.7 0 3.1 1.2 3.2 2.7.1.9-.2 1.7-.7 2.3zm10.2 7.5c-.3.5-.9.9-1.5 1-.4 0-1 0-1.6-.6l-4.7-4.7c.2-.2.4-.3.5-.5 1.3-1.5 2-3.4 1.8-5.4-.2-1.8-1-3.4-2.4-4.5l4.7-4.7c.6-.6 1.3-.6 1.6-.6.6.1 1.2.5 1.5 1 3.6 5.9 3.6 13.1.1 19zm-63-23.9c.4.4.6.9.6 1.4 0 .5-.2 1-.6 1.4-.4.4-.9.6-1.5.6s-1-.2-1.4-.6c-.4-.4-.6-.9-.6-1.4 0-.5.2-1 .6-1.4.8-.8 2.1-.8 2.9 0z"/></svg>