<svg xmlns="http://www.w3.org/2000/svg" data-name="Icon Set" viewBox="0 0 256 256"><path fill="#ffd30f" d="M113.516 56.063h21.618c-1.538-29.444-27.378-29.8-50.247-28.629A28.629 28.629 0 00113.516 56.063zM58.914 128c-9.1-16.875-19.9-36.852-42.523-33.421a64.005 64.005 0 000 66.842C39.01 164.86 49.827 144.852 58.914 128z"/><path fill="#ffe277" d="M21.97,128a63.8,63.8,0,0,0,8.63,32.07,32.465,32.465,0,0,1-14.21,1.35,63.993,63.993,0,0,1,0-66.84A32.319,32.319,0,0,1,30.6,95.93,63.8,63.8,0,0,0,21.97,128Z"/><path fill="#ffd30f" d="M233.178,128c-2.04,116.148-174.541,115.281-176.167,0C58.992,12.218,231.213,12.231,233.178,128Z"/><path fill="#ffe277" d="M152.59,215.76c-126.672,5.106-125.781-181.041,0-175.52C46.685,50.719,45.791,204.789,152.59,215.76Z"/><path fill="#ffc300" d="M233.18,128c.333,51.067-44.515,92.418-95.59,87.76,106.093-9.721,105.879-165.9,0-175.52C188.646,35.654,233.443,76.713,233.18,128Z"/><path fill="#ffe2e2" d="M233.15,130.16c-3.555,94.8-131.574,118.414-169.18,32.19C132.59,180.988,164.651,110.757,233.15,130.16Z"/><path fill="#ffcfcf" d="M233.15,130.16c-.078,49.255-46.591,90.911-95.55,85.6a88.122,88.122,0,0,0,80.57-88.22A106.291,106.291,0,0,1,233.15,130.16Z"/><path fill="#ffeeed" d="M152.58,215.76c-38.528,3.516-74.549-19.561-88.61-53.41a121.294,121.294,0,0,0,16.05,2.37A88.125,88.125,0,0,0,152.58,215.76Z"/><path fill="#ffd30f" d="M241.185 128c5.916-5.011 12.905-13 5.727-20.206h0a10.239 10.239 0 00-14.479 0c-13.12 13.078-16 14.537-15.984 20.206a10.135 10.135 0 003.423 7.644l12.561 12.562C243.561 157.839 260.083 142.065 241.185 128zM142.068 148.276c4.726 6.32 13.651 9.367 19.837 3.047l20.945-20.946c-5.461-5.59-13.166-15.311-21.946-9.774C151.1 126.471 130 133.533 142.068 148.276z"/><path fill="#5f266d" d="M145.1 50.917c-3.02-.282-7.046.365-6.893 4.213.138 3.726 3.97 4.113 6.893 3.786C150.283 58.993 150.285 50.84 145.1 50.917zM126.408 53.207A77.061 77.061 0 0080.937 85.314a4 4 0 106.654 4.44 69.086 69.086 0 0140.757-28.786C133.388 59.793 131.433 51.868 126.408 53.207z"/><path fill="#5f266d" d="M246.842,128c14.764-9.965,3.712-33.426-13.351-25.783-.56-1.93-1.165-3.847-1.852-5.735l12.561-5.2a4,4,0,0,0-3.062-7.391L228.566,89.1a91.484,91.484,0,0,0-15.6-23.31l9.638-9.638a4,4,0,0,0-5.657-5.657l-9.638,9.638A91.442,91.442,0,0,0,184,44.534l5.21-12.577a4,4,0,1,0-7.391-3.062L176.607,41.47A91.266,91.266,0,0,0,149.1,36.017V22.386a4,4,0,1,0-8,0V36.011c-2.792.12-5.565.377-8.3.746-9.952-15.7-31.708-13.495-47.9-13.326C74.257,25.548,86.4,48.786,92.524,52.4a92.484,92.484,0,0,0-9.643,7.73l-9.639-9.639a4,4,0,0,0-5.656,5.657l9.638,9.638a91.489,91.489,0,0,0-15.6,23.31L49.052,83.888a4,4,0,0,0-3.063,7.391l12.563,5.2a91.125,91.125,0,0,0-4.214,15.857C47.305,97.777,32.2,88.359,15.882,90.613a4,4,0,0,0-2.9,1.879,68,68,0,0,0,0,71.016c1.256,2.051,3.539,2.172,7.542,2.172,24.349,0,32.907-21.082,33.849-22.072a91.971,91.971,0,0,0,4.263,15.876l-12.643,5.237a4,4,0,0,0,3.063,7.391l12.567-5.206a90.646,90.646,0,0,0,15.6,23.314l-9.632,9.632a4,4,0,0,0,2.828,6.828c2.857,0,3.113-1.973,12.43-10.772a89.652,89.652,0,0,0,23.324,15.618l-5.186,12.517a4,4,0,1,0,7.391,3.062l5.176-12.495a95.652,95.652,0,0,0,27.546,5.4v13.6a4,4,0,0,0,8,0V220.032a94.9,94.9,0,0,0,27.559-5.39c1.769,2.592,4.354,15.549,8.859,14.933,8.935-.723-.621-13.928-1.457-17.966a90.873,90.873,0,0,0,23.325-15.665c9.3,8.779,9.541,10.736,12.394,10.736a4,4,0,0,0,2.829-6.828l-9.552-9.552a86.95,86.95,0,0,0,15.938-23.22c12.587,5.1,12.284,5.337,13.677,5.337a4,4,0,0,0,1.533-7.7l-12.214-5.059q.99-2.855,1.748-5.765C250.769,161.151,261.519,137.933,246.842,128Zm-54.173,69.029a121.04,121.04,0,0,0,18.574-65.939c.519.018,1.038.044,1.558.071,1.357,6.074,5.038,7.519,13.942,17.012A83.46,83.46,0,0,1,192.669,197.029Zm10.583-65.9c-.862,32.414-12.587,81.223-51.865,80.341,18.114-21.032,28.223-46.188,29.413-73.388C186.023,131.25,194.7,132.131,203.252,131.132Zm-62.925,24.139a111.1,111.1,0,0,1-25.466,51.178,83.986,83.986,0,0,1-14.623-7.324,119.032,119.032,0,0,0,15.526-33.791A135.579,135.579,0,0,0,140.327,155.271ZM93.7,194.53a89.172,89.172,0,0,1-22.626-26.782,101.885,101.885,0,0,0,35.682-.243A111.089,111.089,0,0,1,93.7,194.53Zm46.7,17.128a85.062,85.062,0,0,1-17.256-2.613A118.536,118.536,0,0,0,147.95,157.82c10,4.284,18.041-4.448,24.1-10.986C169.025,171.04,158.208,193.242,140.4,211.658ZM159.076,148.5c-5.728,6.2-16.736-1.35-16.332-9.524a7.932,7.932,0,0,1,4.021-5.87c22.492-11.577,17.831-14.566,30.428-2.724C175.134,132.435,181.284,126.287,159.076,148.5Zm54.147-25.321a97.732,97.732,0,0,0-29.186,2.733c-6.235-7.325-15.243-14.61-25.087-8.794-11.863,6.692-31.246,13.8-22.083,30.933-22.693,11.782-43.067,16.1-69.918,10.825C25.335,49.411,196.8-6.063,226.714,107.824,219.076,115.325,214.763,119.036,213.223,123.174ZM89.21,31.43c12.145,1.014,23.951-3.293,34.5,7.019A91.051,91.051,0,0,0,99.77,47.861,24.478,24.478,0,0,1,89.21,31.43Zm-44.14,112.2a28.569,28.569,0,0,1-26.272,14,59.989,59.989,0,0,1,0-59.261c17.971-1.627,26.945,13.8,34.251,27.556-.054,2.181-.055,1.935,0,4.151Zm193.287-12.806,5.727,5.727c5.8,5.633-3.181,14.639-8.823,8.822-19.55-20.061-20.268-14.552,0-34.754a6.234,6.234,0,0,1,8.822,0C252.188,119.483,232.579,123.582,238.357,130.828Z"/><path fill="#5f266d" d="M201.317,89.588c-6.135-.09-6.135,9.547,0,9.457C207.452,99.134,207.452,89.5,201.317,89.588Z"/></svg>