<svg xmlns="http://www.w3.org/2000/svg" viewBox="0 0 16.933 16.933"><g paint-order="stroke fill markers"><path fill="#e77e22" fill-rule="evenodd" d="m15.854 6.74-1.461.649-1.164-2.03-3.059-2.274-3.058-.378-3.897.92L1.78 5.25.454 7.93l.108 1.46.866 2.112 2.68 1.949 3.329 1.055 3.22-.541 2.247-2.03 1.462-2.138 1.813.541.27-3.194z"/><path fill="#ecf0f1" fill-rule="evenodd" d="m1.997 11.367 5.088-.297 4.493 2.138-4.195 1.137-3.843-1.056z"/><path fill="none" stroke="#2d3e50" stroke-linecap="round" stroke-linejoin="round" stroke-width="1.058" d="M14.288 287.475c-.573-2.725-3.494-4.763-6.88-4.763-3.799 0-6.879 2.607-6.879 5.821 0 3.215 3.08 5.821 6.88 5.821m0 0c3.372 0 6.29-2.053 6.88-4.762m0 0 1.851 1.058a8.599 8.599 0 0 0 0-4.233l-1.852 1.058" transform="matrix(1 0 0 1.00002 0 -280.073)"/><path fill="none" stroke="#2d3e50" stroke-linecap="round" stroke-linejoin="round" stroke-width="1.058" d="m6.35 286.946 2.117-.53c.297.974.404 2.002 0 3.176l-2.117-.53" transform="matrix(1 0 0 1.00002 0 -280.073)"/><path d="M6.764 290.727c-1.648-.207-3.312-.074-5.248.193a.53.53 0 0 0-.454.596.53.53 0 0 0 .598.453c3.814-.525 6.169-.56 9.713 1.52a.53.53 0 0 0 .725-.19.53.53 0 0 0-.188-.725c-1.867-1.095-3.499-1.64-5.146-1.847zm.644-9.602a.53.53 0 0 0-.53.53v2.116a.53.53 0 0 0 .53.53.53.53 0 0 0 .53-.53v-2.117a.53.53 0 0 0-.53-.529zm3.71.793a.53.53 0 0 0-.446.236l-.53.793a.53.53 0 0 0 .147.735.53.53 0 0 0 .734-.147l.53-.793a.53.53 0 0 0-.147-.734.53.53 0 0 0-.289-.09zm-7.444.002a.53.53 0 0 0-.264.088.53.53 0 0 0-.146.734l.529.793a.53.53 0 0 0 .734.147.53.53 0 0 0 .147-.735l-.53-.793a.53.53 0 0 0-.47-.234z" style="line-height:normal;font-variant-ligatures:normal;font-variant-position:normal;font-variant-caps:normal;font-variant-numeric:normal;font-variant-alternates:normal;font-variant-east-asian:normal;font-feature-settings:normal;font-variation-settings:normal;text-indent:0;text-align:start;text-decoration-line:none;text-decoration-style:solid;text-decoration-color:#000;text-transform:none;text-orientation:mixed;white-space:normal;shape-padding:0;shape-margin:0;inline-size:0;isolation:auto;mix-blend-mode:normal;solid-color:#000;solid-opacity:1" fill="#2d3e50" fill-rule="evenodd" color="#000" font-family="sans-serif" font-weight="400" overflow="visible" transform="matrix(1 0 0 1.00002 0 -280.073)"/><path d="M7.408 292.768a.53.53 0 0 0-.53.527v2.117a.53.53 0 0 0 .53.53.53.53 0 0 0 .53-.53v-2.117a.53.53 0 0 0-.53-.527zm3.145.529a.53.53 0 0 0-.264.088.53.53 0 0 0-.146.734l.529.793a.53.53 0 0 0 .734.147.53.53 0 0 0 .147-.733l-.53-.795a.53.53 0 0 0-.47-.234zm-6.315-.002a.53.53 0 0 0-.445.236l-.53.795a.53.53 0 0 0 .147.733.53.53 0 0 0 .735-.147l.529-.793a.53.53 0 0 0-.147-.734.53.53 0 0 0-.289-.09z" style="line-height:normal;font-variant-ligatures:normal;font-variant-position:normal;font-variant-caps:normal;font-variant-numeric:normal;font-variant-alternates:normal;font-variant-east-asian:normal;font-feature-settings:normal;font-variation-settings:normal;text-indent:0;text-align:start;text-decoration-line:none;text-decoration-style:solid;text-decoration-color:#000;text-transform:none;text-orientation:mixed;white-space:normal;shape-padding:0;shape-margin:0;inline-size:0;isolation:auto;mix-blend-mode:normal;solid-color:#000;solid-opacity:1" fill="#2d3e50" fill-rule="evenodd" color="#000" font-family="sans-serif" font-weight="400" overflow="visible" transform="matrix(1 0 0 1.00002 0 -280.073)"/></g></svg>