<svg width="410" height="76" viewBox="0 0 410 76" fill="none" xmlns="http://www.w3.org/2000/svg">
<g clip-path="url(#clip0_139_35)">
<path d="M-3.32206e-06 1.52588e-05L0 76L1.49868 76L1.49868 1.51933e-05L-3.32206e-06 1.52588e-05Z" fill="#0B0C0C"/>
<path d="M8.26025 1.52588e-05L8.26025 76L11.2692 76L11.2692 1.51273e-05L8.26025 1.52588e-05Z" fill="#0B0C0C"/>
<path d="M15.7651 1.52588e-05L15.7651 76L18.7741 76L18.7741 1.51273e-05L15.7651 1.52588e-05Z" fill="#0B0C0C"/>
<path d="M24.0254 1.52588e-05L24.0254 76L28.5331 76L28.5331 1.50618e-05L24.0254 1.52588e-05Z" fill="#0B0C0C"/>
<path d="M34.0166 1.52588e-05L34.0166 76L36.5725 76L36.5725 1.51471e-05L34.0166 1.52588e-05Z" fill="#0B0C0C"/>
<path d="M42.8228 1.52588e-05L42.8228 76L45.7736 76L45.7736 1.51298e-05L42.8228 1.52588e-05Z" fill="#0B0C0C"/>
<path d="M51.8149 1.52588e-05L51.8149 76L54.8239 76L54.8239 1.51273e-05L51.8149 1.52588e-05Z" fill="#0B0C0C"/>
<path d="M59.3198 1.52588e-05L59.3198 76L65.3262 76L65.3262 1.49962e-05L59.3198 1.52588e-05Z" fill="#0B0C0C"/>
<path d="M69.1252 1.52588e-05L69.1252 76L73.5284 76L73.5283 1.50663e-05L69.1252 1.52588e-05Z" fill="#0B0C0C"/>
<path d="M78.9888 1.52588e-05L78.9888 76L81.6957 76L81.6957 1.51405e-05L78.9888 1.52588e-05Z" fill="#0B0C0C"/>
<path d="M84.4026 1.52588e-05L84.4026 76L85.1577 76L85.1577 1.52258e-05L84.4026 1.52588e-05Z" fill="#0B0C0C"/>
<path d="M75.8867 1.52588e-05L75.8867 76L76.6419 76L76.6419 1.52258e-05L75.8867 1.52588e-05Z" fill="#0B0C0C"/>
<path d="M347.485 1.52588e-05L347.485 76L348.24 76L348.24 1.52258e-05L347.485 1.52588e-05Z" fill="#0B0C0C"/>
<path d="M160.684 1.52588e-05L160.684 76L161.439 76L161.439 1.52258e-05L160.684 1.52588e-05Z" fill="#0B0C0C"/>
<path d="M134.428 1.52588e-05L134.428 76L135.183 76L135.183 1.52258e-05L134.428 1.52588e-05Z" fill="#0B0C0C"/>
<path d="M87.853 1.52588e-05L87.853 76L90.862 76L90.862 1.51273e-05L87.853 1.52588e-05Z" fill="#0B0C0C"/>
<path d="M95.207 1.52588e-05L95.207 76L101.515 76L101.515 1.4983e-05L95.207 1.52588e-05Z" fill="#0B0C0C"/>
<path d="M111.123 1.52588e-05L111.123 76L112.622 76L112.622 1.51933e-05L111.123 1.52588e-05Z" fill="#0B0C0C"/>
<path d="M118.14 1.52588e-05L118.14 76L123.647 76L123.647 1.50181e-05L118.14 1.52588e-05Z" fill="#0B0C0C"/>
<path d="M127.469 1.52588e-05L127.469 76L132.325 76L132.325 1.50465e-05L127.469 1.52588e-05Z" fill="#0B0C0C"/>
<path d="M137.286 1.52588e-05L137.286 76L140.539 76L140.539 1.51166e-05L137.286 1.52588e-05Z" fill="#0B0C0C"/>
<path d="M144.966 1.52588e-05L144.966 76L150.867 76L150.867 1.50008e-05L144.966 1.52588e-05Z" fill="#0B0C0C"/>
<path d="M156.177 1.52588e-05L156.177 76L157.675 76L157.675 1.51933e-05L156.177 1.52588e-05Z" fill="#0B0C0C"/>
<path d="M164.437 1.52588e-05L164.437 76L167.446 76L167.446 1.51273e-05L164.437 1.52588e-05Z" fill="#0B0C0C"/>
<path d="M172.546 1.52588e-05L172.546 76L177.356 76L177.356 1.50485e-05L172.546 1.52588e-05Z" fill="#0B0C0C"/>
<path d="M183.211 1.52588e-05L183.211 76L184.71 76L184.71 1.51933e-05L183.211 1.52588e-05Z" fill="#0B0C0C"/>
<path d="M179.528 1.52588e-05L179.528 76L181.027 76L181.027 1.51933e-05L179.528 1.52588e-05Z" fill="#0B0C0C"/>
<path d="M186.592 1.52588e-05L186.592 76L188.09 76L188.09 1.51933e-05L186.592 1.52588e-05Z" fill="#0B0C0C"/>
<path d="M189.972 1.52588e-05L189.972 76L195.979 76L195.979 1.49962e-05L189.972 1.52588e-05Z" fill="#0B0C0C"/>
<path d="M200.452 1.52588e-05L200.452 76L203.507 76L203.507 1.51252e-05L200.452 1.52588e-05Z" fill="#0B0C0C"/>
<path d="M209.211 1.52588e-05L209.211 76L212.766 76L212.766 1.51034e-05L209.211 1.52588e-05Z" fill="#0B0C0C"/>
<path d="M219.156 1.52588e-05L219.156 76L220.852 76L220.852 1.51846e-05L219.156 1.52588e-05Z" fill="#0B0C0C"/>
<path d="M224.605 1.52588e-05L224.605 76L233.411 76L233.411 1.48739e-05L224.605 1.52588e-05Z" fill="#0B0C0C"/>
<path d="M236.525 1.52588e-05L236.525 76L239.534 76L239.534 1.51273e-05L236.525 1.52588e-05Z" fill="#0B0C0C"/>
<path d="M243.855 1.52588e-05L243.855 76L250.21 76L250.21 1.4981e-05L243.855 1.52588e-05Z" fill="#0B0C0C"/>
<path d="M254.462 1.52588e-05L254.462 76L257.611 76L257.611 1.51212e-05L254.462 1.52588e-05Z" fill="#0B0C0C"/>
<path d="M263.257 1.52588e-05L263.257 76L266.858 76L266.858 1.51014e-05L263.257 1.52588e-05Z" fill="#0B0C0C"/>
<path d="M272.563 1.52588e-05L272.563 76L275.572 76L275.572 1.51273e-05L272.563 1.52588e-05Z" fill="#0B0C0C"/>
<path d="M279.847 1.52588e-05L279.847 76L286.306 76L286.306 1.49764e-05L279.847 1.52588e-05Z" fill="#0B0C0C"/>
<path d="M289.734 1.52588e-05L289.734 76L294.439 76L294.439 1.50531e-05L289.734 1.52588e-05Z" fill="#0B0C0C"/>
<path d="M300.12 1.52588e-05L300.12 76L302.072 76L302.072 1.51735e-05L300.12 1.52588e-05Z" fill="#0B0C0C"/>
<path d="M307.509 1.52588e-05L307.509 76L312.714 76L312.714 1.50313e-05L307.509 1.52588e-05Z" fill="#0B0C0C"/>
<path d="M316.559 1.52588e-05L316.559 76L321.659 76L321.659 1.50359e-05L316.559 1.52588e-05Z" fill="#0B0C0C"/>
<path d="M327.456 1.52588e-05L327.456 76L328.804 76L328.804 1.51999e-05L327.456 1.52588e-05Z" fill="#0B0C0C"/>
<path d="M48.1204 1.52588e-05L48.1204 76L49.468 76L49.468 1.51999e-05L48.1204 1.52588e-05Z" fill="#0B0C0C"/>
<path d="M39.0239 1.52588e-05L39.0239 76L40.3716 76L40.3716 1.51999e-05L39.0239 1.52588e-05Z" fill="#0B0C0C"/>
<path d="M29.9272 1.52588e-05L29.9272 76L31.2749 76L31.2749 1.51999e-05L29.9272 1.52588e-05Z" fill="#0B0C0C"/>
<path d="M114.701 1.52588e-05L114.701 76L116.049 76L116.049 1.51999e-05L114.701 1.52588e-05Z" fill="#0B0C0C"/>
<path d="M296.6 1.52588e-05L296.6 76L297.947 76L297.947 1.51999e-05L296.6 1.52588e-05Z" fill="#0B0C0C"/>
<path d="M331.917 1.52588e-05L331.917 76L333.265 76L333.265 1.51999e-05L331.917 1.52588e-05Z" fill="#0B0C0C"/>
<path d="M336.39 1.52588e-05L336.39 76L337.889 76L337.889 1.51933e-05L336.39 1.52588e-05Z" fill="#0B0C0C"/>
<path d="M341.642 1.52588e-05L341.642 76L344.651 76L344.651 1.51273e-05L341.642 1.52588e-05Z" fill="#0B0C0C"/>
<path d="M351.075 1.52588e-05L351.075 76L359.231 76L359.231 1.49023e-05L351.075 1.52588e-05Z" fill="#0B0C0C"/>
<path d="M362.844 1.52588e-05L362.844 76L365.493 76L365.493 1.5143e-05L362.844 1.52588e-05Z" fill="#0B0C0C"/>
<path d="M371.278 1.52588e-05L371.278 76L375.077 76L375.077 1.50927e-05L371.278 1.52588e-05Z" fill="#0B0C0C"/>
<path d="M380.538 1.52588e-05L380.538 76L383.837 76L383.837 1.51146e-05L380.538 1.52588e-05Z" fill="#0B0C0C"/>
<path d="M399.405 1.52588e-05L399.405 76L401.008 76L401.008 1.51887e-05L399.405 1.52588e-05Z" fill="#0B0C0C"/>
<path d="M395.594 1.52588e-05L395.594 76L397.197 76L397.197 1.51887e-05L395.594 1.52588e-05Z" fill="#0B0C0C"/>
<path d="M391.772 1.52588e-05L391.772 76L393.375 76L393.375 1.51887e-05L391.772 1.52588e-05Z" fill="#0B0C0C"/>
<path d="M387.961 1.52588e-05L387.961 76L389.564 76L389.564 1.51887e-05L387.961 1.52588e-05Z" fill="#0B0C0C"/>
<path d="M408.443 1.52588e-05L408.443 76L410 76L410 1.51907e-05L408.443 1.52588e-05Z" fill="#0B0C0C"/>
<path d="M403.947 1.52588e-05L403.947 76L405.504 76L405.504 1.51907e-05L403.947 1.52588e-05Z" fill="#0B0C0C"/>
</g>
<defs>
<clipPath id="clip0_139_35">
<rect width="76" height="410" fill="white" transform="translate(0 76) rotate(-90)"/>
</clipPath>
</defs>
</svg>
