<svg width="143" height="44" viewBox="0 0 143 44" fill="none" xmlns="http://www.w3.org/2000/svg">
<path d="M69.9632 0H60.9963V27.8161H69.9632V0Z" fill="#EFE4CE"/>
<path d="M75.2671 0V27.8161H84.234V17.4617V0H75.2671Z" fill="#EFE4CE"/>
<path d="M94.2662 17.4617L104.439 0H94.4073L84.2341 17.4617H89.6836L94.3588 27.8161H104.439L99.6672 17.4617H94.2662Z" fill="#EFE4CE"/>
<path d="M119.025 0C110.969 0 104.439 6.22621 104.439 13.908C104.439 21.5899 110.97 27.8161 119.025 27.8161C127.079 27.8161 133.61 21.5899 133.61 13.908C133.61 6.22621 127.08 0 119.025 0ZM119.025 19.2679C115.682 19.2679 112.964 16.8635 112.964 13.908C112.964 10.9526 115.683 8.54814 119.025 8.54814C122.366 8.54814 125.085 10.9526 125.085 13.908C125.085 16.8635 122.366 19.2679 119.025 19.2679Z" fill="#EFE4CE"/>
<path d="M36.6066 0L29.1721 27.8161H38.0347L38.9956 24.0916H48.5193L49.4802 27.8161H58.3428L50.9098 0H36.6066ZM40.7073 17.4617L43.7574 6.62547L46.8076 17.4617H40.7058H40.7073Z" fill="#EFE4CE"/>
<path d="M25.4123 13.3865C22.8382 11.9662 19.1048 12.3213 19.1048 12.3213L23.8519 7.67741C25.3388 6.18643 25.831 4.02655 24.5337 2.26595C23.4758 0.829473 21.4762 0 19.3839 0H0V27.8161H19.45C25.3697 27.8161 29.1721 24.152 29.1721 19.6495C29.1721 16.9504 27.8792 14.7478 25.4123 13.3865ZM8.57459 6.6402H14.1578L8.57459 12.3198V6.6402ZM16.6482 21.1862H8.59075V17.4057H16.6482C18.8315 17.4057 19.9231 17.8919 19.9231 19.2827C19.9231 20.6735 18.5817 21.1877 16.6482 21.1877V21.1862Z" fill="#EFE4CE"/>
<path d="M104.952 35.7042C104.654 35.4036 104.22 35.324 103.818 35.2961C103.029 35.2415 102.233 35.2445 101.441 35.2194C100.522 35.19 99.6041 35.162 98.6858 35.1325C99.7863 34.7598 100.888 34.3885 101.989 34.0157C102.673 33.7844 103.357 33.5531 104.041 33.3218C104.404 33.1995 104.682 32.8091 104.554 32.4157C104.436 32.0533 104.04 31.769 103.65 31.9015C101.25 32.7133 98.8503 33.5251 96.4496 34.3369C95.7649 34.5682 95.0817 34.7995 94.397 35.0309C94.0473 35.1487 93.8211 35.464 93.871 35.8397C93.9195 36.2066 94.2236 36.4673 94.5924 36.4791C96.3776 36.5351 98.1613 36.5911 99.9464 36.6486C101.06 36.6839 102.177 36.706 103.29 36.7502C103.277 36.7591 103.265 36.7694 103.252 36.7782C103.157 36.8489 103.058 36.9167 102.96 36.983C102.418 37.3484 101.848 37.674 101.273 37.9878C99.1222 39.1591 96.8771 40.1609 94.6336 41.1392C94.2442 41.3086 93.8534 41.4781 93.4611 41.6445C93.107 41.7963 93.0012 42.3473 93.1981 42.6523C93.4361 43.0221 93.824 43.0795 94.2031 42.916C96.6949 41.8493 99.1853 40.7561 101.583 39.4906C102.23 39.1488 102.87 38.7952 103.484 38.3974C103.891 38.1351 104.298 37.8537 104.651 37.5208C105.145 37.0522 105.524 36.2832 104.951 35.7056L104.952 35.7042Z" fill="#E05619"/>
<path d="M115.027 30.1498C114.905 29.7711 114.52 29.5251 114.123 29.6356C111.917 30.2485 109.736 30.9748 107.579 31.7468C107.024 31.9457 106.47 32.1505 105.919 32.3642C105.562 32.5027 105.275 32.8651 105.406 33.2702C105.518 33.6179 105.926 33.9347 106.31 33.7844C107.055 33.4942 107.806 33.2172 108.559 32.9505C107.994 34.6242 107.415 36.292 106.828 37.9583C106.648 38.471 106.466 38.9837 106.282 39.4965C106.151 39.8589 106.429 40.3186 106.795 40.4025C107.208 40.4968 107.559 40.2773 107.698 39.8884C108.443 37.8154 109.163 35.7336 109.873 33.6474C110.02 33.2172 110.164 32.7855 110.308 32.3539C111.141 32.0783 111.977 31.8131 112.814 31.5553C113.378 31.3815 113.944 31.2135 114.513 31.0559C114.883 30.9527 115.147 30.5284 115.025 30.1498H115.027Z" fill="#E05619"/>
<path d="M111.924 33.394C111.656 34.2515 111.333 35.1237 111.18 36.0106C111.075 36.6206 111.07 37.2364 111.314 37.8154C111.568 38.4209 112.078 38.8408 112.701 39.0324C114.04 39.4464 115.277 38.6316 116.054 37.5974C116.339 37.2172 116.546 36.7944 116.733 36.3583C116.947 35.8559 117.144 35.3461 117.325 34.829C117.7 33.7535 118.049 32.6456 118.234 31.52C118.296 31.1413 118.136 30.7082 117.722 30.6139C117.368 30.5328 116.884 30.7214 116.818 31.1281C116.67 32.0341 116.405 32.9255 116.123 33.7977C115.972 34.2647 115.81 34.7274 115.635 35.1856C115.596 35.2902 115.554 35.3948 115.512 35.4979C115.491 35.548 115.471 35.5966 115.452 35.6467C115.421 35.7233 115.485 35.5686 115.482 35.573C115.468 35.6054 115.455 35.6393 115.44 35.6732C115.368 35.8397 115.293 36.0047 115.212 36.1668C115.098 36.3922 114.962 36.5999 114.821 36.8077C114.774 36.8769 114.848 36.7753 114.851 36.7708C114.832 36.8003 114.802 36.8312 114.78 36.8578C114.745 36.9005 114.708 36.9432 114.67 36.983C114.577 37.0846 114.479 37.1804 114.376 37.2718C114.356 37.2894 114.335 37.3071 114.314 37.3248C114.226 37.3999 114.328 37.3012 114.336 37.3086C114.335 37.3071 114.217 37.3926 114.206 37.3999C114.095 37.4721 113.981 37.5311 113.863 37.5885C113.787 37.6254 113.922 37.562 113.921 37.5635C113.915 37.5738 113.827 37.5974 113.825 37.5974C113.777 37.6136 113.728 37.6268 113.678 37.6386C113.653 37.6445 113.459 37.6754 113.577 37.6622C113.688 37.6504 113.487 37.6651 113.446 37.6651C113.412 37.6651 113.283 37.6799 113.265 37.6578C113.262 37.6548 113.417 37.6858 113.33 37.6666C113.304 37.6607 113.277 37.6578 113.251 37.6519C113.189 37.6386 113.127 37.6224 113.067 37.6018C113.057 37.5988 113.001 37.5723 112.992 37.5753C113.08 37.615 113.099 37.6239 113.051 37.6003C113.036 37.5929 113.021 37.587 113.007 37.5782C112.957 37.5532 112.91 37.5222 112.861 37.4957C112.748 37.4338 112.955 37.5885 112.864 37.5001C112.826 37.4648 112.789 37.4279 112.753 37.3911C112.638 37.2762 112.813 37.5045 112.735 37.3675C112.71 37.3233 112.685 37.2791 112.659 37.2349C112.597 37.1288 112.707 37.394 112.656 37.2276C112.623 37.1259 112.603 37.0228 112.579 36.9196C112.562 36.843 112.592 36.9962 112.589 36.9992C112.594 36.9948 112.582 36.9182 112.582 36.9049C112.579 36.8489 112.578 36.7915 112.578 36.7355C112.578 36.6854 112.579 36.6368 112.582 36.5867C112.584 36.5572 112.591 36.3436 112.591 36.4555C112.591 36.5675 112.591 36.4555 112.597 36.4246C112.603 36.3892 112.609 36.3554 112.616 36.3215C112.629 36.2522 112.645 36.1815 112.663 36.1123C112.697 35.9767 112.732 35.8412 112.767 35.7056C112.816 35.52 112.866 35.3358 112.919 35.1517C113.052 34.692 113.202 34.2382 113.345 33.7815C113.459 33.4132 113.21 32.9609 112.832 32.8754C112.432 32.7841 112.052 32.9962 111.928 33.3896L111.924 33.394Z" fill="#E05619"/>
<path d="M124.684 30.9645C124.59 30.8805 124.648 30.91 124.684 30.9645V30.9645Z" fill="#E05619"/>
<path d="M125.4 29.6371C124.743 29.1612 123.79 29.142 123.017 29.2231C122.009 29.3277 121.007 29.6017 120.127 30.1189C120.091 30.1395 120.059 30.1631 120.03 30.1896C119.915 30.2794 119.827 30.4032 119.79 30.5594C119.435 32.0518 119.126 33.5546 118.788 35.0515C118.7 35.4419 118.591 35.8294 118.544 36.2272C118.468 36.8828 118.788 37.5267 119.433 37.7432C119.877 37.892 120.368 37.783 120.801 37.6475C121.204 37.5208 121.597 37.3631 121.979 37.1863C123.575 36.4452 124.984 35.1708 125.763 33.5782C126.356 32.3627 126.652 30.5476 125.401 29.64L125.4 29.6371ZM119.902 36.3377C119.902 36.3377 119.895 36.3377 119.89 36.3377C119.875 36.323 119.875 36.3156 119.902 36.3377ZM119.908 36.3465C119.908 36.3465 119.902 36.3465 119.899 36.3451C119.902 36.3451 119.905 36.3451 119.908 36.3465ZM119.865 36.3377C119.865 36.3377 119.855 36.3377 119.85 36.3377C119.805 36.3377 119.737 36.3126 119.865 36.3377ZM124.527 32.7605C124.527 32.7605 124.523 32.7679 124.521 32.7723C124.592 32.5778 124.555 32.7016 124.527 32.7605ZM124.778 31.8868C124.79 31.6364 124.778 31.8662 124.767 31.931C124.752 32.0076 124.736 32.0857 124.717 32.1609C124.665 32.3701 124.593 32.569 124.521 32.7708C124.487 32.8445 124.451 32.9167 124.413 32.9889C124.313 33.1789 124.204 33.3646 124.085 33.5458C124.032 33.6268 123.978 33.7049 123.922 33.783C123.9 33.8139 123.876 33.8449 123.854 33.8758C123.85 33.8817 123.847 33.8861 123.844 33.8905C123.84 33.8949 123.835 33.9008 123.831 33.9067C123.704 34.0585 123.578 34.2088 123.443 34.3517C123.322 34.4784 123.196 34.6021 123.067 34.72C122.999 34.7819 122.93 34.8408 122.861 34.8997C122.82 34.9351 122.777 34.969 122.735 35.0043C122.727 35.0102 122.713 35.0235 122.696 35.0382C122.702 35.0323 122.705 35.0294 122.713 35.0235C122.445 35.2666 122.097 35.4567 121.784 35.632C121.636 35.716 121.483 35.794 121.33 35.8677C121.255 35.9045 121.179 35.9384 121.102 35.9723C121.088 35.9782 120.936 36.0357 121.054 35.9944C121.17 35.9532 120.98 36.0239 120.96 36.0312C120.811 36.0902 120.66 36.1432 120.509 36.1933C120.426 36.2198 120.346 36.2463 120.263 36.2699C120.224 36.2817 120.083 36.3347 120.005 36.3465C120.005 36.3436 120.005 36.3421 120.005 36.3392C120.047 36.3362 120.09 36.3333 120.005 36.3362C120.005 36.3303 120.005 36.3244 120.005 36.32C120.005 36.3156 120.008 36.3112 120.009 36.3053C120.021 36.2567 120.03 36.208 120.041 36.1594C120.056 36.0946 120.072 36.0298 120.087 35.9649C120.121 35.8206 120.155 35.6762 120.187 35.5318C120.512 34.1042 120.808 32.6692 121.142 31.2445C121.205 31.212 121.267 31.1811 121.331 31.1516C121.342 31.1472 121.352 31.1428 121.362 31.1369C121.389 31.1295 121.426 31.1089 121.45 31.1001C121.55 31.0603 121.652 31.0235 121.755 30.9896C122.113 30.8688 122.48 30.7789 122.854 30.7185C122.857 30.7185 122.867 30.717 122.879 30.7141C122.826 30.7229 122.958 30.7038 122.97 30.7023C123.055 30.6934 123.139 30.6846 123.224 30.6787C123.402 30.6655 123.579 30.661 123.757 30.6669C123.834 30.6699 123.909 30.6728 123.985 30.6802C124.008 30.6817 124.033 30.6846 124.057 30.6875C124.174 30.7096 124.292 30.7347 124.407 30.7701C124.41 30.7656 124.43 30.7686 124.458 30.7848C124.462 30.7877 124.467 30.7907 124.471 30.7922C124.489 30.7995 124.508 30.8084 124.526 30.8113C124.512 30.8084 124.502 30.8069 124.49 30.8039C124.526 30.8246 124.561 30.8467 124.596 30.8643C124.614 30.882 124.633 30.8982 124.651 30.9174C124.673 30.941 124.692 30.9704 124.715 30.9925C124.703 30.9822 124.695 30.9748 124.686 30.966C124.686 30.9675 124.689 30.969 124.689 30.9704C124.7 30.9911 124.712 31.0117 124.723 31.0323C124.734 31.0853 124.762 31.1413 124.775 31.1914C124.781 31.215 124.786 31.24 124.79 31.2651C124.79 31.3343 124.803 31.408 124.805 31.4772C124.805 31.6157 124.786 31.7513 124.78 31.8883L124.778 31.8868Z" fill="#E05619"/>
<path d="M124.486 30.8025C124.486 30.8025 124.473 30.7951 124.467 30.7907C124.456 30.7863 124.446 30.7818 124.437 30.7789C124.426 30.7745 124.414 30.773 124.402 30.7686C124.399 30.773 124.421 30.7877 124.486 30.8025Z" fill="#E05619"/>
<path d="M127.858 28.0164C127.441 30.3501 126.982 32.675 126.658 35.025C126.63 35.2297 126.622 35.4065 126.731 35.5922C126.821 35.7454 126.996 35.8913 127.17 35.931C127.516 36.0106 128.018 35.825 128.074 35.4169C128.399 33.0669 128.857 30.742 129.274 28.4083C129.342 28.0297 129.173 27.5965 128.762 27.5022C128.403 27.4197 127.93 27.6113 127.858 28.0164Z" fill="#E05619"/>
<path d="M134.977 30.9424C134.977 30.9424 134.977 30.941 134.977 30.9395C134.962 30.9866 134.956 31.0131 134.954 31.0264C134.96 30.9984 134.968 30.9704 134.977 30.9424Z" fill="#E05619"/>
<path d="M134.261 29.0124C134.233 28.9932 134.206 28.9711 134.192 28.9505C134.192 28.9505 134.189 28.949 134.187 28.9476C134.225 29.0168 134.264 29.0286 134.261 29.0124Z" fill="#E05619"/>
<path d="M133.77 32.7414C133.77 32.7414 133.776 32.7399 133.777 32.7384C133.851 32.7119 133.923 32.6426 133.77 32.7414Z" fill="#E05619"/>
<path d="M134.139 32.538C134.139 32.538 134.142 32.5365 134.142 32.5351C134.16 32.513 134.181 32.4909 134.203 32.4702C134.19 32.4776 134.167 32.4997 134.139 32.5365V32.538Z" fill="#E05619"/>
<path d="M134.687 27.5288C134.007 27.1693 133.187 27.0617 132.452 27.3196C131.535 27.6422 130.858 28.3583 130.389 29.1936C130.029 29.8507 129.772 30.6124 129.827 31.3726C129.877 32.0666 130.131 32.6868 130.582 33.2143C131.374 34.141 132.712 34.5093 133.88 34.2426C135.366 33.9038 136.247 32.5174 136.429 31.075C136.603 29.696 135.94 28.1888 134.687 27.5273V27.5288ZM134.765 31.71C134.765 31.71 134.781 31.6732 134.802 31.6231C134.804 31.6423 134.781 31.6806 134.765 31.71ZM134.982 30.8644C134.981 30.8894 134.978 30.9144 134.976 30.9395C134.978 30.9336 134.979 30.9306 134.981 30.9233C134.979 30.9292 134.978 30.9365 134.976 30.9424C134.976 30.9513 134.975 30.9616 134.973 30.9704C134.97 31.0176 134.95 31.0559 134.954 31.0264C134.926 31.1502 134.91 31.2798 134.873 31.4006C134.851 31.4743 134.826 31.548 134.799 31.6216C134.793 31.6364 134.787 31.6511 134.782 31.6658C134.768 31.7027 134.762 31.7174 134.765 31.71C134.759 31.7203 134.754 31.7277 134.752 31.7351C134.687 31.8736 134.615 32.0062 134.53 32.1329C134.521 32.1461 134.511 32.1609 134.502 32.1741C134.508 32.1697 134.511 32.1653 134.516 32.1609C134.508 32.1682 134.502 32.1785 134.494 32.1859C134.493 32.1889 134.49 32.1918 134.489 32.1933C134.474 32.2139 134.458 32.2316 134.446 32.2404C134.431 32.2581 134.418 32.2773 134.402 32.2935C134.346 32.3553 134.267 32.4099 134.202 32.4703C134.226 32.457 134.22 32.482 134.171 32.5145C134.161 32.5218 134.151 32.5277 134.142 32.5351C134.137 32.5395 134.133 32.5454 134.129 32.5498C134.132 32.5454 134.134 32.5425 134.139 32.538C134.127 32.5454 134.115 32.5542 134.105 32.5616C134.055 32.594 134.004 32.625 133.952 32.6544C133.905 32.6809 133.857 32.703 133.81 32.7281C133.792 32.7369 133.769 32.7443 133.751 32.7546C133.758 32.7487 133.764 32.7458 133.772 32.7413C133.675 32.7752 133.576 32.8047 133.476 32.8268C133.437 32.8356 133.398 32.8415 133.359 32.8489C133.34 32.8504 133.319 32.8533 133.3 32.8548C133.185 32.8622 133.071 32.8636 132.956 32.8563C132.952 32.8563 132.949 32.8563 132.944 32.8563C132.936 32.8592 132.914 32.8592 132.887 32.8563C132.871 32.8533 132.856 32.8504 132.84 32.8474C132.827 32.8474 132.814 32.8445 132.8 32.8445C132.809 32.8445 132.817 32.8445 132.825 32.8445C132.811 32.8415 132.796 32.8401 132.78 32.8371C132.678 32.8165 132.577 32.79 132.477 32.759C132.44 32.7472 132.404 32.734 132.367 32.7207C132.376 32.7251 132.382 32.7296 132.39 32.7355C132.377 32.7281 132.364 32.7222 132.349 32.7148C132.343 32.7119 132.336 32.7104 132.33 32.7075C132.311 32.7001 132.293 32.6913 132.282 32.6839C132.188 32.6382 132.097 32.5866 132.008 32.5292C131.975 32.5071 131.942 32.4835 131.909 32.4599C131.892 32.4467 131.876 32.4334 131.86 32.4202C131.776 32.3465 131.7 32.2655 131.626 32.1815C131.631 32.1889 131.634 32.1962 131.64 32.2051C131.634 32.1918 131.625 32.18 131.615 32.1682C131.61 32.1638 131.606 32.1579 131.601 32.1535C131.587 32.1358 131.576 32.1181 131.572 32.1064C131.543 32.0622 131.513 32.0165 131.487 31.9693C131.459 31.9192 131.435 31.8677 131.409 31.8176C131.403 31.8014 131.397 31.7852 131.391 31.769C131.352 31.6526 131.327 31.5332 131.302 31.4139C131.3 31.3903 131.297 31.3667 131.296 31.3417C131.291 31.271 131.291 31.1988 131.293 31.1281C131.294 31.0618 131.3 30.9969 131.306 30.9321C131.312 30.8997 131.318 30.8673 131.324 30.8364C131.359 30.6655 131.409 30.499 131.469 30.3369C131.478 30.3119 131.494 30.2824 131.503 30.2544C131.509 30.2426 131.513 30.2323 131.519 30.2205C131.563 30.1262 131.612 30.0334 131.662 29.9421C131.759 29.7697 131.864 29.6061 131.978 29.4441C131.986 29.4323 131.991 29.4235 131.994 29.4176C132.013 29.3969 132.035 29.3763 132.047 29.363C132.107 29.2923 132.17 29.2246 132.236 29.1597C132.288 29.1082 132.342 29.0581 132.398 29.0109C132.392 29.0139 132.388 29.0168 132.38 29.0212C132.402 29.0095 132.426 28.9874 132.446 28.9726C132.565 28.8886 132.692 28.8268 132.818 28.756C132.839 28.7487 132.861 28.7398 132.881 28.7325C132.937 28.7133 132.994 28.6971 133.053 28.6839C133.068 28.6809 133.082 28.678 133.099 28.6765C133.1 28.6706 133.116 28.6647 133.149 28.6632C133.165 28.6632 133.181 28.6618 133.197 28.6603C133.206 28.6573 133.216 28.6559 133.225 28.6514C133.218 28.6544 133.212 28.6573 133.204 28.6603C133.226 28.6588 133.247 28.6573 133.269 28.6559C133.325 28.6544 133.382 28.6559 133.438 28.6573C133.447 28.6573 133.457 28.6573 133.466 28.6588C133.572 28.7001 133.71 28.7074 133.817 28.7443C133.832 28.7487 133.845 28.7546 133.86 28.7605C133.904 28.784 133.951 28.8047 133.995 28.8297C134.045 28.8577 134.093 28.8872 134.14 28.9181C134.158 28.9299 134.174 28.9417 134.192 28.9535C134.19 28.9505 134.189 28.9491 134.187 28.9446C134.189 28.9476 134.193 28.952 134.196 28.9549C134.206 28.9623 134.217 28.9682 134.226 28.9756C134.252 28.9932 134.264 29.008 134.265 29.0168C134.286 29.0316 134.305 29.0463 134.318 29.0581C134.361 29.0979 134.403 29.1391 134.443 29.1818C134.475 29.2157 134.505 29.2525 134.536 29.2879C134.536 29.285 134.534 29.282 134.534 29.2791C134.534 29.282 134.537 29.2879 134.54 29.2938C134.555 29.31 134.569 29.3277 134.584 29.3439C134.608 29.3719 134.605 29.3748 134.593 29.366C134.603 29.3793 134.613 29.391 134.618 29.3969C134.685 29.4986 134.746 29.6047 134.8 29.7152C134.809 29.7329 134.816 29.7505 134.825 29.7682C134.849 29.8316 134.872 29.8949 134.893 29.9597C134.929 30.0791 134.954 30.1999 134.978 30.3236C134.978 30.3148 134.978 30.3089 134.978 30.2986C134.978 30.3104 134.979 30.3236 134.981 30.3354C134.981 30.3428 134.984 30.3487 134.985 30.3561C134.99 30.3767 134.99 30.3988 134.988 30.412C134.988 30.4135 134.988 30.415 134.988 30.4165C134.994 30.4975 134.997 30.58 134.997 30.661C134.997 30.7303 134.994 30.7995 134.99 30.8688L134.982 30.8644Z" fill="#E05619"/>
<path d="M132.823 32.8415C132.823 32.8415 132.833 32.843 132.837 32.8445C132.872 32.8474 132.906 32.8518 132.942 32.8548C132.955 32.8504 132.928 32.8415 132.823 32.843V32.8415Z" fill="#E05619"/>
<path d="M134.446 32.2404C134.461 32.2213 134.479 32.2036 134.495 32.1844C134.498 32.18 134.501 32.1771 134.503 32.1726C134.425 32.2448 134.424 32.2566 134.446 32.2404Z" fill="#E05619"/>
<path d="M134.981 30.4062C134.979 30.3811 134.975 30.3546 134.973 30.3281C134.973 30.3237 134.972 30.3207 134.97 30.3163C134.972 30.4253 134.979 30.4327 134.981 30.4062Z" fill="#E05619"/>
<path d="M132.28 32.6795C132.28 32.6795 132.286 32.6824 132.291 32.6854C132.31 32.6942 132.329 32.703 132.349 32.7119C132.355 32.7134 132.361 32.7163 132.365 32.7178C132.261 32.6559 132.252 32.6633 132.28 32.681V32.6795Z" fill="#E05619"/>
<path d="M134.588 29.3601C134.567 29.3365 134.545 29.3071 134.536 29.2879C134.536 29.2864 134.533 29.285 134.531 29.2835C134.537 29.3144 134.57 29.3483 134.588 29.3601Z" fill="#E05619"/>
<path d="M133.2 28.6544C133.2 28.6544 133.196 28.6544 133.193 28.6544C133.162 28.6632 133.128 28.6662 133.094 28.6706C133.091 28.6794 133.129 28.6824 133.198 28.6529L133.2 28.6544Z" fill="#E05619"/>
<path d="M132.395 29.0065C132.443 28.9653 132.533 28.9299 132.395 29.0065V29.0065Z" fill="#E05619"/>
<path d="M131.571 32.1034C131.571 32.1034 131.58 32.1181 131.584 32.1255C131.593 32.1388 131.603 32.152 131.614 32.1653C131.618 32.1697 131.621 32.1741 131.626 32.1786C131.575 32.0843 131.559 32.0798 131.569 32.1034H131.571Z" fill="#E05619"/>
<path d="M138.431 27.3922C138.431 27.3922 138.434 27.3937 138.436 27.3952C138.43 27.3877 138.422 27.3801 138.412 27.3726C138.419 27.3801 138.425 27.3862 138.431 27.3922Z" fill="#E05619"/>
<path d="M142.963 29.6223C142.849 29.1803 142.483 28.8592 142.096 28.6485C141.512 28.3288 140.851 28.1564 140.207 28.0061C139.741 27.8986 139.283 27.7719 138.833 27.6039C138.813 27.5951 138.794 27.5877 138.774 27.5789C138.719 27.5523 138.663 27.5258 138.608 27.4964C138.563 27.4713 138.517 27.4463 138.472 27.4183C138.46 27.4109 138.447 27.4021 138.435 27.3947C138.438 27.3991 138.442 27.4035 138.442 27.408C138.442 27.4035 138.437 27.3976 138.431 27.3918C138.423 27.3873 138.416 27.3814 138.409 27.377C138.404 27.3741 138.401 27.3726 138.398 27.3697C138.398 27.3667 138.398 27.3652 138.4 27.3623C138.404 27.3652 138.409 27.3682 138.413 27.3711C138.409 27.3682 138.406 27.3638 138.401 27.3608C138.403 27.3534 138.409 27.3402 138.413 27.3269C138.417 27.3196 138.42 27.3137 138.422 27.3092C138.448 27.2606 138.479 27.2164 138.509 27.1708C138.531 27.1472 138.553 27.1221 138.575 27.0971C138.632 27.0382 138.691 26.9807 138.752 26.9277C138.776 26.907 138.801 26.8879 138.824 26.8673C138.824 26.8673 138.826 26.8673 138.827 26.8658C138.968 26.7685 139.108 26.6728 139.256 26.5844C139.931 26.1836 140.662 25.8875 141.379 25.5766C141.734 25.4234 141.839 24.8753 141.642 24.5689C141.406 24.2006 141.017 24.1402 140.638 24.3052C139.994 24.5836 139.342 24.8532 138.726 25.1921C138.144 25.5118 137.564 25.9111 137.201 26.4812C136.831 27.0647 136.798 27.8131 137.282 28.3361C137.671 28.7575 138.266 28.98 138.798 29.1538C139.312 29.3218 139.841 29.422 140.363 29.5634C140.52 29.6061 140.677 29.6518 140.833 29.7048C140.903 29.7284 140.975 29.7535 141.044 29.78C141.077 29.7918 141.109 29.805 141.143 29.8183C141.219 29.8551 141.296 29.892 141.371 29.9317C140.884 30.2618 140.357 30.5432 139.854 30.8452C138.995 31.3623 138.137 31.8795 137.277 32.3951C136.948 32.594 136.797 33.0655 137.014 33.4029C137.227 33.7343 137.667 33.8787 138.019 33.6666C138.783 33.2069 139.549 32.7458 140.313 32.2861C140.914 31.9251 141.525 31.576 142.117 31.1988C142.65 30.8584 143.141 30.306 142.963 29.6209V29.6223ZM141.521 29.8345C141.518 29.8389 141.516 29.8419 141.516 29.8419C141.516 29.8419 141.516 29.8374 141.519 29.8345H141.521ZM141.526 29.8257C141.526 29.8257 141.526 29.8257 141.525 29.8257C141.526 29.8227 141.529 29.8183 141.532 29.8153C141.531 29.8183 141.529 29.8212 141.526 29.8242V29.8257ZM141.544 29.7962C141.544 29.7962 141.538 29.8036 141.534 29.8065C141.531 29.8095 141.529 29.8109 141.526 29.8124C141.538 29.7888 141.557 29.7608 141.585 29.7284C141.582 29.7328 141.56 29.7653 141.543 29.7962H141.544Z" fill="#E05619"/>
</svg>
