<svg width="88" height="20" viewBox="0 0 88 20" fill="none" xmlns="http://www.w3.org/2000/svg">
<path d="M46.0803 0.737106H40.1748V19.2638H46.0803V0.737106Z" fill="white"/>
<path d="M49.5737 0.737106V19.2638H55.4792V12.3687V0.737106H49.5737Z" fill="white"/>
<path d="M62.0866 12.3687L68.7876 0.737106H62.18L55.479 12.3687H59.069L62.1471 19.2638H68.7876L65.6455 12.3687H62.0866Z" fill="white"/>
<path d="M78.3938 0.737106C73.0883 0.737106 68.7876 4.88435 68.7876 10.0013C68.7876 15.1183 73.0883 19.2655 78.3938 19.2655C83.6992 19.2655 88 15.1183 88 10.0013C88 4.88435 83.6992 0.737106 78.3938 0.737106ZM78.3938 13.5699C76.1924 13.5699 74.4026 11.9689 74.4026 9.99957C74.4026 8.03029 76.1941 6.42926 78.3938 6.42926C80.5934 6.42926 82.385 8.03029 82.385 9.99957C82.385 11.9689 80.5934 13.5699 78.3938 13.5699Z" fill="white"/>
<path d="M24.11 0.737106L19.2144 19.2638H25.0507L25.6836 16.7825H31.9575L32.5904 19.2638H38.4267L33.5311 0.737106H24.11ZM26.8111 12.3669L28.8205 5.14914L30.83 12.3669H26.8111Z" fill="white"/>
<path d="M16.7378 9.65411C15.0413 8.70893 12.584 8.94391 12.5823 8.94391L15.7088 5.85057C16.6894 4.85629 17.0127 3.41835 16.1585 2.24695C15.4616 1.28949 14.1438 0.737106 12.7673 0.737106H0V19.2638H12.8106C16.7101 19.2638 19.2141 16.8228 19.2141 13.8241C19.2141 12.0267 18.3633 10.559 16.7378 9.65236V9.65411ZM5.64785 5.15966H9.32605L5.64785 8.94215V5.15966ZM10.9654 14.8482H5.65823V12.3301H10.9654C12.4042 12.3301 13.1218 12.6545 13.1218 13.5804C13.1218 14.5063 12.2382 14.8482 10.9654 14.8482Z" fill="white"/>
</svg>
