<svg width="65" height="23" viewBox="0 0 65 23" fill="none" xmlns="http://www.w3.org/2000/svg">
<path d="M11.4508 8.35788C10.2408 9.44686 8.99144 10.4899 7.73158 11.5207C6.70708 12.3589 3.6122 14.8371 4.56878 13.9221C6.786 11.8013 9.14033 9.31242 11.0408 6.89362C12.3776 5.19227 7.70958 9.66928 6.20875 11.2278C4.20566 13.308 4.45921 11.7171 4.86163 9.705C5.86256 4.70033 -0.000820632 10.3667 5.1252 7.30361C5.83262 6.88089 10.8837 3.02128 8.99085 6.19078C7.01512 9.49897 4.44793 12.5824 2.72381 16.0306C-0.078212 21.6347 21.208 -0.563299 17.63 4.58009C14.7227 8.75931 10.8435 12.2968 7.43873 16.0599C7.21326 16.3091 4.9225 18.767 7.08731 17.7877C10.283 16.342 13.1721 13.8047 15.8143 11.55C18.1855 9.5266 20.2985 7.17269 22.7549 5.25365C24.5024 3.88838 22.1582 6.86233 22.1106 6.92291C20.3771 9.12926 18.4721 11.1836 16.5757 13.2485C16.1664 13.6942 13.0769 16.6006 15.7557 16.0306C22.452 14.6059 27.7618 8.71398 33.5612 5.40007C35.0194 4.56679 34.4249 5.68344 33.8247 6.48363C32.0751 8.81644 29.7871 10.7621 27.6455 12.7214C26.5384 13.7343 20.9686 17.8367 25.8591 15.5621C33.7487 11.8925 40.0536 4.9889 48.1745 1.85656C52.8397 0.0571183 41.2415 9.13247 37.2218 12.1064C31.2681 16.5112 38.1421 13.7151 41.2046 12.4578C46.0588 10.465 51.1876 8.31299 55.7008 5.60507C59.9979 3.02679 47.2352 10.9725 42.9324 13.5414C41.8722 14.1743 38.6605 15.7942 39.8868 15.6499C43.7848 15.1913 48.2183 12.5865 51.718 11.1107C53.6971 10.2761 61.868 6.35547 55.0272 10.32C51.4291 12.4053 47.8352 14.5227 44.426 16.9092C38.3767 21.1437 45.5987 18.1971 48.0574 16.9092C51.7932 14.9523 56.2943 12.6976 59.5957 10.0564C62.9192 7.39765 52.6094 14.9355 48.9359 17.0849C46.9519 18.2458 47.8084 18.4002 49.6973 18.1392C52.4 17.7656 54.9664 16.9924 57.4872 15.972C64.0709 13.3072 49.9926 23.3102 55.1444 21.0677C57.4004 20.0857 59.3858 18.5531 61.2943 17.0263C61.3333 16.9951 64.1583 14.4776 62.1143 15.7963C60.3343 16.9447 57.786 18.7953 58.8929 21.0091" stroke="#F74305" stroke-width="3" stroke-linecap="round"/>
</svg>
